<svg width="56" height="56" viewBox="0 0 56 56" fill="none" xmlns="http://www.w3.org/2000/svg">
<rect width="56" height="56" rx="16" fill="#1AC200" fill-opacity="0.12"/>
<path d="M21.9685 17.8357C22.292 17.5769 22.3444 17.105 22.0857 16.7815C21.8269 16.4581 21.3549 16.4056 21.0315 16.6644L18.5315 18.6644C18.208 18.9231 18.1556 19.3951 18.4143 19.7185C18.6731 20.042 19.1451 20.0944 19.4685 19.8357L21.9685 17.8357Z" fill="#1AC200"/>
<path d="M34.9685 16.6644C34.6451 16.4056 34.1731 16.4581 33.9143 16.7815C33.6556 17.105 33.708 17.5769 34.0315 17.8357L36.5315 19.8357C36.8549 20.0944 37.3269 20.042 37.5857 19.7185C37.8444 19.3951 37.792 18.9231 37.4685 18.6644L34.9685 16.6644Z" fill="#1AC200"/>
<path fill-rule="evenodd" clip-rule="evenodd" d="M28 17.25C22.0629 17.25 17.25 22.063 17.25 28C17.25 33.9371 22.0629 38.75 28 38.75C33.9371 38.75 38.75 33.9371 38.75 28C38.75 22.063 33.9371 17.25 28 17.25ZM28.75 24C28.75 23.5858 28.4142 23.25 28 23.25C27.5858 23.25 27.25 23.5858 27.25 24L27.25 27.5C27.25 28.7427 28.2574 29.75 29.5 29.75H31C31.4142 29.75 31.75 29.4142 31.75 29C31.75 28.5858 31.4142 28.25 31 28.25H29.5C29.0858 28.25 28.75 27.9142 28.75 27.5L28.75 24Z" fill="#1AC200"/>
</svg>
