<svg width="80" height="80" viewBox="0 0 80 80" fill="none" xmlns="http://www.w3.org/2000/svg">
<g clip-path="url(#clip0_2004_450)">
<path d="M50.5936 2.37894L77.9611 30.1641L67.5822 67.7577L29.8357 77.5661L2.46818 49.7809L12.8471 12.1873L50.5936 2.37894Z" fill="url(#paint0_linear_2004_450)"/>
<path d="M55.8059 46.0245C55.4076 45.7941 54.9535 45.6727 54.4954 45.6727C53.7079 45.6727 52.9683 46.0323 52.4742 46.6276L49.1883 44.8577V35.7975L52.6356 33.9416C53.1219 34.4279 53.7906 34.7133 54.4948 34.7133C54.9535 34.7133 55.4069 34.5913 55.8059 34.3609C57.0587 33.6371 57.4899 32.0286 56.7667 30.7758C56.2994 29.9667 55.4273 29.4633 54.4915 29.4633C54.0327 29.4633 53.5793 29.5854 53.1809 29.8151C52.1185 30.4287 51.6558 31.6762 51.9767 32.8063L48.5432 34.6549L40.6571 30.1058V25.8592C41.7865 25.5659 42.6258 24.5467 42.6258 23.3274C42.6258 21.8797 41.4485 20.7024 40.0008 20.7024C38.5531 20.7024 37.3758 21.8797 37.3758 23.3274C37.3758 24.5467 38.2152 25.5659 39.3446 25.8592V30.1058L31.4577 34.6556L28.0243 32.8069C28.3452 31.6775 27.8825 30.4293 26.8207 29.8164C26.4224 29.586 25.9689 29.464 25.5102 29.464C24.5744 29.464 23.7022 29.9673 23.235 30.7765C22.5111 32.0299 22.9429 33.6384 24.1957 34.3616C24.594 34.5919 25.0475 34.714 25.5062 34.714C26.2104 34.714 26.8784 34.4285 27.3654 33.9422L30.8133 35.7988V44.8583L27.5268 46.6276C27.0333 46.0323 26.2944 45.6727 25.5069 45.6727C25.0488 45.6727 24.5954 45.7948 24.197 46.0245C23.5893 46.3749 23.1549 46.9406 22.9738 47.6185C22.792 48.2957 22.8845 49.0025 23.235 49.6102C23.7022 50.4194 24.5744 50.9227 25.5102 50.9227C25.9682 50.9227 26.4224 50.8006 26.8207 50.571C27.807 50.0007 28.2736 48.8837 28.0787 47.8226L31.4696 45.9969L39.3446 50.2369V54.265C38.2152 54.5583 37.3758 55.5775 37.3758 56.7968C37.3758 58.2445 38.5531 59.4218 40.0008 59.4218C41.4485 59.4218 42.6258 58.2445 42.6258 56.7968C42.6258 55.5775 41.7865 54.5583 40.6571 54.265V50.2369L48.5321 45.9962L51.9223 47.8219C51.7274 48.8837 52.1939 50.0013 53.1809 50.571C53.5793 50.8013 54.0327 50.9227 54.4915 50.9227C55.4273 50.9227 56.2994 50.4194 56.7667 49.6102C57.4899 48.3561 57.0587 46.7483 55.8059 46.0245ZM53.2256 31.7491C53.3161 31.4104 53.5333 31.1276 53.8372 30.9517C54.0367 30.8369 54.2624 30.7758 54.4915 30.7758C54.96 30.7758 55.3964 31.0272 55.6294 31.4321C55.9917 32.0588 55.7757 32.8627 55.1497 33.2243C54.5394 33.576 53.704 33.3464 53.3568 32.7446C53.1816 32.4414 53.135 32.0877 53.2256 31.7491ZM38.6883 23.3274C38.6883 22.6035 39.277 22.0149 40.0008 22.0149C40.7247 22.0149 41.3133 22.6035 41.3133 23.3274C41.3133 24.0512 40.7247 24.6399 40.0008 24.6399C39.277 24.6399 38.6883 24.0512 38.6883 23.3274ZM40.0008 31.2418L47.1841 35.386L40.0008 39.2546L32.8168 35.3866L40.0008 31.2418ZM24.852 33.225C24.2259 32.8627 24.01 32.0588 24.3722 31.4321C24.6052 31.0272 25.0423 30.7758 25.5102 30.7758C25.7392 30.7758 25.965 30.8369 26.1645 30.9517C26.7905 31.314 27.0064 32.1179 26.6441 32.7446C26.297 33.347 25.4596 33.5754 24.852 33.225ZM26.1645 49.4337C25.5555 49.7861 24.7187 49.5564 24.3722 48.954C24.1963 48.6508 24.1504 48.2971 24.2416 47.9578C24.3329 47.6192 24.5501 47.3363 24.8539 47.1611C25.0534 47.0456 25.2791 46.9846 25.5075 46.9846C25.9754 46.9846 26.4119 47.2359 26.6448 47.6408C27.0064 48.2682 26.7905 49.0721 26.1645 49.4337ZM32.1258 44.8577V36.5049L39.3446 40.3919V48.7453L32.1258 44.8577ZM41.3133 56.7961C41.3133 57.52 40.7247 58.1086 40.0008 58.1086C39.277 58.1086 38.6883 57.52 38.6883 56.7961C38.6883 56.0723 39.277 55.4836 40.0008 55.4836C40.7247 55.4836 41.3133 56.0723 41.3133 56.7961ZM40.6571 48.7453V40.3919L47.8758 36.5049V44.8583L40.6571 48.7453ZM55.6294 48.954C55.2823 49.5571 54.4436 49.7861 53.8372 49.4337C53.5333 49.2585 53.3161 48.9756 53.2256 48.637C53.1343 48.2977 53.1816 47.944 53.3562 47.6408C53.5898 47.2366 54.0262 46.9846 54.4948 46.9846C54.7231 46.9846 54.9495 47.0456 55.149 47.1611C55.7758 47.5227 55.9917 48.3266 55.6294 48.954Z" fill="white"/>
</g>
<defs>
<linearGradient id="paint0_linear_2004_450" x1="2.62106" y1="29.5936" x2="77.8082" y2="50.3515" gradientUnits="userSpaceOnUse">
<stop stop-color="#1CA906"/>
<stop offset="1" stop-color="#22D306"/>
</linearGradient>
<clipPath id="clip0_2004_450">
<rect width="80" height="80" fill="white"/>
</clipPath>
</defs>
</svg>
