<svg width="24" height="25" viewBox="0 0 24 25" fill="none" xmlns="http://www.w3.org/2000/svg">
<path d="M19 2.96875H5C4.44772 2.96875 4 3.41647 4 3.96875V21.9688C4 22.521 4.44772 22.9688 5 22.9688H19C19.5523 22.9688 20 22.521 20 21.9688V3.96875C20 3.41647 19.5523 2.96875 19 2.96875Z" stroke="#1AC200" stroke-width="2" stroke-linecap="round" stroke-linejoin="round"/>
<path d="M17 6.46875H7V10.9688H17V6.46875Z" stroke="#1AC200" stroke-width="2" stroke-linecap="round" stroke-linejoin="round"/>
<path d="M8.5 14.9688C9.05228 14.9688 9.5 14.521 9.5 13.9688C9.5 13.4165 9.05228 12.9688 8.5 12.9688C7.94772 12.9688 7.5 13.4165 7.5 13.9688C7.5 14.521 7.94772 14.9688 8.5 14.9688Z" fill="#1AC200"/>
<path d="M8.5 17.9688C9.05228 17.9688 9.5 17.521 9.5 16.9688C9.5 16.4165 9.05228 15.9688 8.5 15.9688C7.94772 15.9688 7.5 16.4165 7.5 16.9688C7.5 17.521 7.94772 17.9688 8.5 17.9688Z" fill="#1AC200"/>
<path d="M8.5 20.9688C9.05228 20.9688 9.5 20.521 9.5 19.9688C9.5 19.4165 9.05228 18.9688 8.5 18.9688C7.94772 18.9688 7.5 19.4165 7.5 19.9688C7.5 20.521 7.94772 20.9688 8.5 20.9688Z" fill="#1AC200"/>
<path d="M12 14.9688C12.5523 14.9688 13 14.521 13 13.9688C13 13.4165 12.5523 12.9688 12 12.9688C11.4477 12.9688 11 13.4165 11 13.9688C11 14.521 11.4477 14.9688 12 14.9688Z" fill="#1AC200"/>
<path d="M12 17.9688C12.5523 17.9688 13 17.521 13 16.9688C13 16.4165 12.5523 15.9688 12 15.9688C11.4477 15.9688 11 16.4165 11 16.9688C11 17.521 11.4477 17.9688 12 17.9688Z" fill="#1AC200"/>
<path d="M12 20.9688C12.5523 20.9688 13 20.521 13 19.9688C13 19.4165 12.5523 18.9688 12 18.9688C11.4477 18.9688 11 19.4165 11 19.9688C11 20.521 11.4477 20.9688 12 20.9688Z" fill="#1AC200"/>
<path d="M15.5 14.9688C16.0523 14.9688 16.5 14.521 16.5 13.9688C16.5 13.4165 16.0523 12.9688 15.5 12.9688C14.9477 12.9688 14.5 13.4165 14.5 13.9688C14.5 14.521 14.9477 14.9688 15.5 14.9688Z" fill="#1AC200"/>
<path d="M15.5 17.9688C16.0523 17.9688 16.5 17.521 16.5 16.9688C16.5 16.4165 16.0523 15.9688 15.5 15.9688C14.9477 15.9688 14.5 16.4165 14.5 16.9688C14.5 17.521 14.9477 17.9688 15.5 17.9688Z" fill="#1AC200"/>
<path d="M15.5 20.9688C16.0523 20.9688 16.5 20.521 16.5 19.9688C16.5 19.4165 16.0523 18.9688 15.5 18.9688C14.9477 18.9688 14.5 19.4165 14.5 19.9688C14.5 20.521 14.9477 20.9688 15.5 20.9688Z" fill="#1AC200"/>
</svg>
