<svg width="56" height="56" viewBox="0 0 56 56" fill="none" xmlns="http://www.w3.org/2000/svg">
<rect width="56" height="56" rx="16" fill="#1AC200" fill-opacity="0.12"/>
<path d="M21.0611 20.9549C21.6947 20.4946 22.4586 20.2561 23.5 20.1327V21C23.5 21.8284 24.1716 22.5 25 22.5C25.8284 22.5 26.5 21.8284 26.5 21V20.0028C26.9641 20 27.4628 20 28 20C28.5372 20 29.0359 20 29.5 20.0028V21C29.5 21.8284 30.1716 22.5 31 22.5C31.8284 22.5 32.5 21.8284 32.5 21V20.1327C33.5414 20.2561 34.3053 20.4946 34.9389 20.9549C35.3634 21.2633 35.7367 21.6366 36.0451 22.0611C36.6094 22.8378 36.8403 23.8104 36.9347 25.25H19.0653C19.1597 23.8104 19.3906 22.8378 19.9549 22.0611C20.2633 21.6366 20.6366 21.2633 21.0611 20.9549Z" fill="#1AC200"/>
<path fill-rule="evenodd" clip-rule="evenodd" d="M19.0107 26.7498C19 27.4158 19 28.161 19 29C19 32.7497 19 34.6246 19.9549 35.9389C20.2633 36.3634 20.6366 36.7367 21.0611 37.0451C22.3754 38 24.2503 38 28 38C28.8389 38 29.584 38 30.25 37.9893L30.25 37.9192C30.2499 37.0672 30.2499 36.5482 30.3208 36.1005C30.7105 33.6401 32.6401 31.7105 35.1005 31.3208C35.5482 31.2499 36.0672 31.2499 36.9192 31.25L36.9893 31.25C37 30.584 37 29.8389 37 29C37 28.161 37 27.4158 36.9893 26.7498L36.971 26.75H19.0288L19.0107 26.7498ZM25 29.25C24.5858 29.25 24.25 29.5858 24.25 30C24.25 30.4142 24.5858 30.75 25 30.75H31C31.4142 30.75 31.75 30.4142 31.75 30C31.75 29.5858 31.4142 29.25 31 29.25H25Z" fill="#1AC200"/>
<path d="M34.9389 37.0451C34.1622 37.6094 33.1896 37.8403 31.75 37.9347C31.7501 37.0243 31.7535 36.6435 31.8023 36.3352C32.0904 34.5166 33.5166 33.0904 35.3352 32.8023C35.6435 32.7535 36.0243 32.7501 36.9347 32.75C36.8403 34.1896 36.6094 35.1622 36.0451 35.9389C35.7367 36.3634 35.3634 36.7367 34.9389 37.0451Z" fill="#1AC200"/>
<path d="M25.75 18C25.75 17.5858 25.4142 17.25 25 17.25C24.5858 17.25 24.25 17.5858 24.25 18V21C24.25 21.4142 24.5858 21.75 25 21.75C25.4142 21.75 25.75 21.4142 25.75 21V18Z" fill="#1AC200"/>
<path d="M31.75 18C31.75 17.5858 31.4142 17.25 31 17.25C30.5858 17.25 30.25 17.5858 30.25 18V21C30.25 21.4142 30.5858 21.75 31 21.75C31.4142 21.75 31.75 21.4142 31.75 21V18Z" fill="#1AC200"/>
</svg>
