<svg width="56" height="56" viewBox="0 0 56 56" fill="none" xmlns="http://www.w3.org/2000/svg">
<rect width="56" height="56" rx="16" fill="#1AC200" fill-opacity="0.12"/>
<path d="M27.0473 22.9934C27.1139 22.955 27.1815 22.9205 27.25 22.8897V26.9199C25.623 26.2014 25.4706 23.9037 27.0473 22.9934Z" fill="#1AC200"/>
<path d="M28.75 33.1104V29.08C30.3772 29.7984 30.5296 32.0962 28.9529 33.0066C28.8862 33.045 28.8185 33.0796 28.75 33.1104Z" fill="#1AC200"/>
<path fill-rule="evenodd" clip-rule="evenodd" d="M17.25 28C17.25 22.0629 22.0629 17.25 28 17.25C33.9371 17.25 38.75 22.0629 38.75 28C38.75 33.9371 33.9371 38.75 28 38.75C22.0629 38.75 17.25 33.9371 17.25 28ZM28.75 21C28.75 20.5858 28.4142 20.25 28 20.25C27.5858 20.25 27.25 20.5858 27.25 21V21.3081C26.9232 21.3901 26.6026 21.5181 26.2973 21.6944C23.5755 23.2659 23.9214 27.2989 26.8712 28.3839L27.25 28.5232V33.2194C26.7151 33.0686 26.2372 32.717 25.938 32.1988L25.5625 31.5483C25.3554 31.1895 24.8967 31.0666 24.538 31.2737C24.1792 31.4808 24.0563 31.9395 24.2634 32.2983L24.639 32.9488C25.2175 33.9507 26.1927 34.5796 27.25 34.7535V35C27.25 35.4142 27.5858 35.75 28 35.75C28.4142 35.75 28.75 35.4142 28.75 35V34.692C29.0768 34.61 29.3975 34.4819 29.7029 34.3056C32.4247 32.7341 32.0788 28.7011 29.1291 27.6161L28.75 27.4767V22.7805C29.285 22.9313 29.7629 23.283 30.0622 23.8013L30.4377 24.4518C30.6448 24.8105 31.1035 24.9334 31.4622 24.7263C31.821 24.5192 31.9439 24.0605 31.7368 23.7017L31.3612 23.0513C30.7827 22.0493 29.8074 21.4203 28.75 21.2465V21Z" fill="#1AC200"/>
</svg>
