<svg width="42" height="43" viewBox="0 0 42 43" fill="none" xmlns="http://www.w3.org/2000/svg">
<path d="M18.1566 21.798C18.0996 21.7969 18.0996 21.7969 18.0429 21.7917C17.4148 21.7219 16.9566 21.0996 17.0194 20.4016L17.6246 13.0186C17.6831 12.3694 18.1747 11.875 18.7618 11.875H23.1875C23.3139 11.875 23.4394 11.8983 23.5589 11.944C24.1558 12.172 24.4734 12.8945 24.2682 13.5578L22.7916 17.629L25.5153 17.629C25.7168 17.629 25.9147 17.6882 26.0891 17.8006C26.6349 18.1528 26.8205 18.9299 26.5037 19.5365C26.0926 20.3447 21.9619 27.2868 20.627 29.5271C20.5208 29.7054 20.2488 29.618 20.2609 29.4107L20.7078 21.7917L18.1566 21.798Z" stroke="#21272A" stroke-width="1.5" stroke-linecap="round" stroke-linejoin="round"/>
<circle cx="21" cy="21.5" r="21" fill="#F86A6A" fill-opacity="0.14"/>
</svg>
