<svg width="80" height="80" viewBox="0 0 80 80" fill="none" xmlns="http://www.w3.org/2000/svg">
<g clip-path="url(#clip0_2004_52)">
<path d="M50.5936 2.37894L77.9611 30.1641L67.5822 67.7577L29.8357 77.5661L2.46818 49.7809L12.8471 12.1873L50.5936 2.37894Z" fill="url(#paint0_linear_2004_52)"/>
<path d="M39.4055 53.2952C39.4626 53.3103 39.5197 53.3175 39.5762 53.3175C39.8341 53.3175 40.0749 53.1659 40.1799 52.9192L46.7063 37.6331C46.793 37.4304 46.772 37.1974 46.6499 37.0136C46.5285 36.8299 46.3231 36.719 46.1026 36.719H42.127L43.5071 25.946C43.5485 25.6225 43.3457 25.3173 43.0307 25.23C42.713 25.1414 42.3849 25.3002 42.2543 25.5995L35.7797 40.3933C35.6905 40.5961 35.7109 40.8304 35.8316 41.0154C35.953 41.2012 36.1591 41.3127 36.3809 41.3127H40.3118L38.9245 52.5812C38.8845 52.9054 39.0892 53.2099 39.4055 53.2952ZM37.385 40.0002L41.6243 30.314L40.7305 37.2919C40.7069 37.4789 40.7646 37.6673 40.8887 37.809C41.0134 37.9508 41.1932 38.0315 41.3815 38.0315H45.109L40.7948 48.1358L41.7063 40.7365C41.7293 40.5502 41.6709 40.3625 41.5469 40.2214C41.4229 40.0809 41.243 40.0002 41.0553 40.0002H37.385Z" fill="white"/>
<path d="M58.7467 39.1174C58.7467 36.1275 57.9782 33.1744 56.5246 30.5776L55.3788 31.2188C56.7235 33.6207 57.4342 36.3513 57.4342 39.1174C57.4342 46.5317 52.2787 53.0168 45.2122 54.8084L47.0707 52.5089L46.0502 51.6833L42.5117 56.0611L47.6679 58.3252L48.1961 57.123L45.7155 56.0336C53.2611 54.0327 58.7467 47.0685 58.7467 39.1174Z" fill="white"/>
<path d="M41.2429 22.9317C45.6811 22.9317 49.8273 24.7062 52.8671 27.8496L49.9303 27.3607L49.7151 28.6555L55.2709 29.5815L54.7032 23.9804L53.3973 24.113L53.669 26.7931C50.3969 23.4836 45.9725 21.6199 41.2429 21.6199C35.128 21.6199 29.3727 24.8795 26.2227 30.1268L27.3481 30.8021C30.3065 25.8737 35.5007 22.9317 41.2429 22.9317Z" fill="white"/>
<path d="M25.0504 39.1174C25.0504 37.5634 25.2689 36.0403 25.6987 34.5683L26.9489 37.3685L28.1472 36.8337L25.853 31.6946L21.4941 35.2587L22.3249 36.2746L24.32 34.6438C23.9361 36.0974 23.7372 37.5949 23.7372 39.1187C23.7372 48.7676 31.5899 56.6176 41.242 56.6176V55.3051C32.3138 55.3038 25.0504 48.0431 25.0504 39.1174Z" fill="white"/>
</g>
<defs>
<linearGradient id="paint0_linear_2004_52" x1="2.62106" y1="29.5936" x2="77.8082" y2="50.3515" gradientUnits="userSpaceOnUse">
<stop stop-color="#1CA906"/>
<stop offset="1" stop-color="#22D306"/>
</linearGradient>
<clipPath id="clip0_2004_52">
<rect width="80" height="80" fill="white"/>
</clipPath>
</defs>
</svg>
