<svg width="15" height="16" viewBox="0 0 15 16" fill="none" xmlns="http://www.w3.org/2000/svg">
<path d="M4.34683 8.89906C4.29802 8.89812 4.29802 8.89812 4.24936 8.89362C3.71104 8.83378 3.31829 8.3004 3.37212 7.70217L3.89088 1.37384C3.94095 0.817375 4.36234 0.393616 4.86559 0.393616H8.659C8.76738 0.393616 8.87499 0.413591 8.97741 0.452742C9.48903 0.648165 9.7612 1.26748 9.58533 1.83601L8.31968 5.3256L10.6543 5.32561C10.827 5.32561 10.9967 5.37637 11.1461 5.47273C11.6139 5.77455 11.7731 6.44069 11.5015 6.96063C11.1492 7.65338 7.60849 13.6037 6.4643 15.524C6.37327 15.6768 6.14011 15.6019 6.15048 15.4242L6.53358 8.89362L4.34683 8.89906Z" fill="#E2B380"/>
</svg>
