<svg width="80" height="80" viewBox="0 0 80 80" fill="none" xmlns="http://www.w3.org/2000/svg">
<g clip-path="url(#clip0_2004_1395)">
<path d="M50.5936 2.37894L77.9611 30.1641L67.5822 67.7577L29.8357 77.5661L2.46818 49.7809L12.8471 12.1873L50.5936 2.37894Z" fill="url(#paint0_linear_2004_1395)"/>
<path d="M57.0625 56.4062H54.4375V28.8438C54.4375 28.4815 54.1435 28.1875 53.7812 28.1875H47.875C47.5128 28.1875 47.2188 28.4815 47.2188 28.8438V56.4062H43.9375V39.3438C43.9375 38.9815 43.6435 38.6875 43.2812 38.6875H36.7188C36.3565 38.6875 36.0625 38.9815 36.0625 39.3438V56.4062H32.7812V49.1875C32.7812 48.8246 32.4872 48.5312 32.125 48.5312H26.2188C25.8565 48.5312 25.5625 48.8246 25.5625 49.1875V56.4062H22.9375C22.5753 56.4062 22.2812 56.6996 22.2812 57.0625C22.2812 57.4254 22.5753 57.7188 22.9375 57.7188H57.0625C57.4247 57.7188 57.7188 57.4254 57.7188 57.0625C57.7188 56.6996 57.4247 56.4062 57.0625 56.4062ZM48.5312 29.5H53.125V56.4062H48.5312V29.5ZM37.375 40H42.625V56.4062H37.375V40ZM26.875 49.8438H31.4688V56.4062H26.875V49.8438Z" fill="white"/>
<path d="M23.5939 44.5878C23.7619 44.5878 23.9299 44.5235 24.0579 44.3956L42.6252 25.8342V29.5C42.6252 29.8622 42.9192 30.1562 43.2814 30.1562C43.6437 30.1562 43.9377 29.8622 43.9377 29.5V24.25C43.9377 24.2487 43.937 24.248 43.937 24.2467C43.937 24.1627 43.9199 24.0787 43.8871 23.9993C43.8202 23.8385 43.6929 23.7112 43.5321 23.6443C43.452 23.6108 43.3667 23.5938 43.2814 23.5938H38.0314C37.6692 23.5938 37.3752 23.8877 37.3752 24.25C37.3752 24.6122 37.6692 24.9062 38.0314 24.9062H41.6966L23.1299 43.4676C22.8734 43.7242 22.8734 44.139 23.1299 44.3956C23.2579 44.5242 23.4259 44.5878 23.5939 44.5878Z" fill="white"/>
</g>
<defs>
<linearGradient id="paint0_linear_2004_1395" x1="2.62106" y1="29.5936" x2="77.8082" y2="50.3515" gradientUnits="userSpaceOnUse">
<stop stop-color="#1CA906"/>
<stop offset="1" stop-color="#22D306"/>
</linearGradient>
<clipPath id="clip0_2004_1395">
<rect width="80" height="80" fill="white"/>
</clipPath>
</defs>
</svg>
