<svg width="29" height="30" viewBox="0 0 29 30" fill="none" xmlns="http://www.w3.org/2000/svg">
<path d="M12.1537 15.2129C12.1156 15.2121 12.1156 15.2121 12.0776 15.2083C11.6572 15.1585 11.3505 14.714 11.3925 14.2155L11.7976 8.94185C11.8368 8.47813 12.1658 8.125 12.5589 8.125H15.5213C15.606 8.125 15.69 8.14165 15.77 8.17427C16.1695 8.33712 16.3821 8.85322 16.2447 9.32699L15.2563 12.235L17.0796 12.235C17.2144 12.235 17.3469 12.2773 17.4636 12.3576C17.829 12.6091 17.9533 13.1642 17.7412 13.5975C17.466 14.1748 14.7009 19.1334 13.8074 20.7336C13.7363 20.861 13.5542 20.7986 13.5623 20.6505L13.8615 15.2083L12.1537 15.2129Z" stroke="#21272A" stroke-width="1.5" stroke-linecap="round" stroke-linejoin="round"/>
<ellipse cx="14.0571" cy="15" rx="14.0571" ry="15" fill="#F86A6A" fill-opacity="0.14"/>
</svg>
