<svg width="19" height="22" viewBox="0 0 19 22" fill="none" xmlns="http://www.w3.org/2000/svg">
<g clip-path="url(#clip0_2004_1989)">
<path d="M9.3705 7.5C10.2335 7.5 10.9324 6.71688 10.9324 5.75C10.9324 4.78312 10.2335 4 9.3705 4C8.50755 4 7.80859 4.78312 7.80859 5.75C7.80859 6.71688 8.50755 7.5 9.3705 7.5ZM9.3705 9.25C8.50755 9.25 7.80859 10.0331 7.80859 11C7.80859 11.9669 8.50755 12.75 9.3705 12.75C10.2335 12.75 10.9324 11.9669 10.9324 11C10.9324 10.0331 10.2335 9.25 9.3705 9.25ZM9.3705 14.5C8.50755 14.5 7.80859 15.2831 7.80859 16.25C7.80859 17.2169 8.50755 18 9.3705 18C10.2335 18 10.9324 17.2169 10.9324 16.25C10.9324 15.2831 10.2335 14.5 9.3705 14.5Z" fill="#6B6B6B"/>
</g>
<defs>
<clipPath id="clip0_2004_1989">
<rect width="18.7429" height="21" fill="white" transform="translate(0 0.5)"/>
</clipPath>
</defs>
</svg>
