<svg width="80" height="80" viewBox="0 0 80 80" fill="none" xmlns="http://www.w3.org/2000/svg">
<g clip-path="url(#clip0_2004_884)">
<path d="M50.5936 2.37894L77.9611 30.1641L67.5822 67.7577L29.8357 77.5661L2.46818 49.7809L12.8471 12.1873L50.5936 2.37894Z" fill="url(#paint0_linear_2004_884)"/>
<path d="M40 40.4731C42.5331 40.4731 44.5938 38.4131 44.5938 35.8806C44.5938 33.3475 42.5331 31.2869 40 31.2869C37.4669 31.2869 35.4062 33.3475 35.4062 35.8806C35.4062 38.4131 37.4669 40.4731 40 40.4731ZM40 32.5994C41.8093 32.5994 43.2812 34.0713 43.2812 35.8806C43.2812 37.6892 41.8093 39.1606 40 39.1606C38.1907 39.1606 36.7188 37.6892 36.7188 35.8806C36.7188 34.0713 38.1907 32.5994 40 32.5994Z" fill="white"/>
<path d="M28.8438 36.5802C31.3769 36.5802 33.4375 34.5203 33.4375 31.9878C33.4375 29.4547 31.3769 27.394 28.8438 27.394C26.3106 27.394 24.25 29.4547 24.25 31.9878C24.25 34.5203 26.3106 36.5802 28.8438 36.5802ZM28.8438 28.7065C30.653 28.7065 32.125 30.1785 32.125 31.9878C32.125 33.7964 30.653 35.2677 28.8438 35.2677C27.0345 35.2677 25.5625 33.7964 25.5625 31.9878C25.5625 30.1785 27.0345 28.7065 28.8438 28.7065Z" fill="white"/>
<path d="M51.1562 36.5802C53.6894 36.5802 55.75 34.5203 55.75 31.9878C55.75 29.4547 53.6894 27.394 51.1562 27.394C48.6231 27.394 46.5625 29.4547 46.5625 31.9878C46.5625 34.5203 48.6231 36.5802 51.1562 36.5802ZM51.1562 28.7065C52.9655 28.7065 54.4375 30.1785 54.4375 31.9878C54.4375 33.7964 52.9655 35.2677 51.1562 35.2677C49.347 35.2677 47.875 33.7964 47.875 31.9878C47.875 30.1785 49.347 28.7065 51.1562 28.7065Z" fill="white"/>
<path d="M60.5087 47.3093C60.4897 47.1945 60.47 47.0501 60.447 46.8821C60.1458 44.6778 59.2297 37.9689 51.1565 37.9689C47.4001 37.9689 44.7219 39.4219 43.1922 42.2851C42.2761 42.0173 41.2215 41.8611 40.0002 41.8611C38.7789 41.8611 37.723 42.0167 36.8069 42.2851C35.2779 39.4225 32.601 37.9683 28.844 37.9683C20.7708 37.9683 19.8547 44.6771 19.5534 46.8808C19.5305 47.0501 19.5108 47.1945 19.4918 47.3087C19.4425 47.5974 19.5915 47.8842 19.856 48.0102C22.4272 49.2394 25.5358 49.889 28.8446 49.889C29.5258 49.889 30.1965 49.8516 30.858 49.7978C30.7924 50.1745 30.7464 50.5072 30.7103 50.7724C30.6874 50.9417 30.6677 51.086 30.6487 51.2002C30.5994 51.489 30.7484 51.7758 31.0129 51.9018C33.5841 53.1309 36.6927 53.7806 40.0015 53.7806C43.3103 53.7806 46.4183 53.1309 48.9902 51.9018C49.2547 51.7758 49.403 51.489 49.3544 51.2002C49.3354 51.0854 49.3157 50.941 49.2927 50.773C49.2566 50.5072 49.2107 50.1752 49.1451 49.7985C49.8092 49.8523 50.4812 49.889 51.1584 49.889C54.4673 49.889 57.5753 49.2394 60.1471 48.0102C60.4096 47.8849 60.5579 47.5981 60.5087 47.3093ZM28.844 48.5772C25.9164 48.5772 23.1674 48.0424 20.8581 47.0271C21.1521 44.876 21.9501 39.2808 28.844 39.2808C32.0084 39.2808 34.2607 40.4568 35.5594 42.7569C32.8392 44.0464 31.6842 46.4864 31.1513 48.4578C30.3993 48.5319 29.6275 48.5772 28.844 48.5772ZM40.0002 52.4701C37.0727 52.4701 34.3237 51.9352 32.0143 50.92C32.3083 48.7688 33.1063 43.1736 40.0002 43.1736C46.8928 43.1736 47.6921 48.7675 47.9861 50.92C45.6768 51.9352 42.9278 52.4701 40.0002 52.4701ZM51.1565 48.5772C50.3775 48.5772 49.6051 48.5332 48.8491 48.4571C48.3156 46.4857 47.1606 44.0458 44.4404 42.7563C45.7391 40.4555 47.9927 39.2801 51.1565 39.2801C58.0491 39.2801 58.8484 44.874 59.1424 47.0265C56.833 48.0424 54.084 48.5772 51.1565 48.5772Z" fill="white"/>
</g>
<defs>
<linearGradient id="paint0_linear_2004_884" x1="2.62106" y1="29.5936" x2="77.8082" y2="50.3515" gradientUnits="userSpaceOnUse">
<stop stop-color="#1CA906"/>
<stop offset="1" stop-color="#22D306"/>
</linearGradient>
<clipPath id="clip0_2004_884">
<rect width="80" height="80" fill="white"/>
</clipPath>
</defs>
</svg>
