<svg width="20" height="21" viewBox="0 0 20 21" fill="none" xmlns="http://www.w3.org/2000/svg">
<circle cx="9.99984" cy="11" r="8.33333" stroke="black" stroke-width="1.5"/>
<path d="M9.90844 6.41834C10.7924 6.41834 11.4988 6.66101 12.0274 7.14634C12.5648 7.63168 12.8334 8.29468 12.8334 9.13534C12.8334 10.0107 12.5561 10.6693 12.0014 11.1113C11.4468 11.5533 10.7101 11.7743 9.79144 11.7743L9.73944 12.8013H8.45244L8.38744 10.7603H8.81644C9.65711 10.7603 10.2984 10.6477 10.7404 10.4223C11.1911 10.197 11.4164 9.76801 11.4164 9.13534C11.4164 8.67601 11.2821 8.31634 11.0134 8.05634C10.7534 7.79634 10.3894 7.66634 9.92144 7.66634C9.45344 7.66634 9.08511 7.79201 8.81644 8.04334C8.54777 8.29468 8.41344 8.64568 8.41344 9.09634H7.02244C7.02244 8.57634 7.13944 8.11268 7.37344 7.70534C7.60744 7.29801 7.94111 6.98168 8.37444 6.75634C8.81644 6.53101 9.32777 6.41834 9.90844 6.41834ZM9.07644 15.6743C8.80777 15.6743 8.58244 15.5833 8.40044 15.4013C8.21844 15.2193 8.12744 14.994 8.12744 14.7253C8.12744 14.4567 8.21844 14.2313 8.40044 14.0493C8.58244 13.8673 8.80777 13.7763 9.07644 13.7763C9.33644 13.7763 9.55744 13.8673 9.73944 14.0493C9.92144 14.2313 10.0124 14.4567 10.0124 14.7253C10.0124 14.994 9.92144 15.2193 9.73944 15.4013C9.55744 15.5833 9.33644 15.6743 9.07644 15.6743Z" fill="black"/>
</svg>
