<svg width="29" height="30" viewBox="0 0 29 30" fill="none" xmlns="http://www.w3.org/2000/svg">
<ellipse cx="14.0571" cy="15" rx="14.0571" ry="15" fill="#6F6AF8" fill-opacity="0.14"/>
<path d="M11.4178 20.2708C10.1168 20.2708 9.05078 19.2617 9.05078 18.0192V16.8292C9.05078 16.59 9.23665 16.3917 9.46078 16.3917C9.68491 16.3917 9.87078 16.59 9.87078 16.8292C9.87078 17.5583 10.5322 18.1067 11.4178 18.1067C12.3034 18.1067 12.9649 17.5583 12.9649 16.8292C12.9649 16.59 13.1508 16.3917 13.3749 16.3917C13.599 16.3917 13.7849 16.59 13.7849 16.8292V18.0192C13.7849 19.2617 12.7244 20.2708 11.4178 20.2708ZM10.0129 18.5908C10.2534 19.0692 10.7946 19.3958 11.4178 19.3958C12.041 19.3958 12.5822 19.0633 12.8228 18.5908C12.4346 18.8417 11.9536 18.9875 11.4178 18.9875C10.8821 18.9875 10.401 18.8417 10.0129 18.5908Z" fill="#292D32"/>
<path d="M11.4178 17.3833C10.5213 17.3833 9.71771 16.9458 9.31864 16.2516C9.14371 15.9483 9.05078 15.5924 9.05078 15.2308C9.05078 14.6183 9.30224 14.0466 9.76144 13.6208C10.647 12.7924 12.1722 12.7925 13.0633 13.615C13.5225 14.0466 13.7794 14.6183 13.7794 15.2308C13.7794 15.5924 13.6865 15.9483 13.5116 16.2516C13.118 16.9458 12.3144 17.3833 11.4178 17.3833ZM11.4178 13.8541C10.9914 13.8541 10.5978 14.0058 10.3026 14.2799C10.0238 14.5366 9.87078 14.8749 9.87078 15.2308C9.87078 15.4349 9.91996 15.6216 10.0184 15.7966C10.2698 16.24 10.8056 16.5141 11.4178 16.5141C12.0301 16.5141 12.5658 16.24 12.8118 15.8025C12.9102 15.6333 12.9594 15.4408 12.9594 15.2366C12.9594 14.8808 12.8064 14.5424 12.5276 14.2799C12.2378 14.0058 11.8442 13.8541 11.4178 13.8541Z" fill="#292D32"/>
<path d="M11.4178 18.9875C10.0676 18.9875 9.05078 18.06 9.05078 16.835V15.2308C9.05078 13.9883 10.1113 12.9792 11.4178 12.9792C12.0356 12.9792 12.626 13.2067 13.0688 13.615C13.528 14.0467 13.7849 14.6183 13.7849 15.2308V16.835C13.7849 18.06 12.7681 18.9875 11.4178 18.9875ZM11.4178 13.8542C10.565 13.8542 9.87078 14.4725 9.87078 15.2308V16.835C9.87078 17.5641 10.5322 18.1125 11.4178 18.1125C12.3034 18.1125 12.9649 17.5641 12.9649 16.835V15.2308C12.9649 14.875 12.8118 14.5366 12.533 14.2741C12.2378 14.0058 11.8442 13.8542 11.4178 13.8542Z" fill="#292D32"/>
<path d="M17.9063 15.6333C17.0809 15.6333 16.3812 14.98 16.3156 14.14C16.2718 13.6558 16.4358 13.1833 16.7638 12.8391C17.0372 12.5358 17.4253 12.3666 17.8353 12.3666H18.9778C19.519 12.3841 19.9345 12.8391 19.9345 13.3991V14.6008C19.9345 15.1608 19.519 15.6158 18.9942 15.6333H17.9063ZM18.9614 13.2416H17.8407C17.6494 13.2416 17.4745 13.3175 17.3488 13.4575C17.1902 13.6208 17.1137 13.8425 17.1356 14.0641C17.1629 14.4491 17.5127 14.7583 17.9063 14.7583H18.9778C19.0489 14.7583 19.1145 14.6883 19.1145 14.6008V13.3991C19.1145 13.3116 19.0489 13.2475 18.9614 13.2416Z" fill="#292D32"/>
<path d="M16.2446 19.3958H14.8779C14.6538 19.3958 14.4679 19.1975 14.4679 18.9583C14.4679 18.7192 14.6538 18.5208 14.8779 18.5208H16.2446C17.655 18.5208 18.5679 17.5467 18.5679 16.0417V15.6333H17.9064C17.081 15.6333 16.3813 14.98 16.3157 14.14C16.2719 13.6558 16.4359 13.1833 16.7639 12.8392C17.0373 12.5358 17.4254 12.3667 17.8354 12.3667H18.5624V11.9583C18.5624 10.5933 17.8135 9.65416 16.5999 9.50249C16.4687 9.47916 16.3539 9.47917 16.2391 9.47917H11.3191C11.1879 9.47917 11.0622 9.49083 10.9364 9.50833C9.73377 9.67166 8.99578 10.605 8.99578 11.9583V13.125C8.99578 13.3642 8.80991 13.5625 8.58578 13.5625C8.36165 13.5625 8.17578 13.3642 8.17578 13.125V11.9583C8.17578 10.1617 9.21447 8.86084 10.8271 8.64501C10.9747 8.62168 11.1442 8.60417 11.3191 8.60417H16.2391C16.3703 8.60417 16.5398 8.61 16.7147 8.63917C18.3274 8.8375 19.3824 10.1442 19.3824 11.9583V12.8042C19.3824 13.0433 19.1966 13.2417 18.9724 13.2417H17.8354C17.644 13.2417 17.4691 13.3175 17.3434 13.4575C17.1849 13.6208 17.1083 13.8425 17.1302 14.0642C17.1575 14.4492 17.5074 14.7583 17.901 14.7583H18.9779C19.2021 14.7583 19.3879 14.9567 19.3879 15.1958V16.0417C19.3879 18.0483 18.1251 19.3958 16.2446 19.3958Z" fill="#292D32"/>
</svg>
