<svg width="42" height="46" viewBox="0 0 42 46" fill="none" xmlns="http://www.w3.org/2000/svg">
<circle cx="21" cy="23.5" r="21" fill="#AE4444"/>
<path d="M19.0825 31.5754C19.0067 31.5754 18.9309 31.5754 18.855 31.5588C18.2159 31.4921 17.6742 31.1254 17.3817 30.5588L10.1017 16.5588C9.80919 16.0004 9.87422 15.4588 10.2642 15.0671C10.665 14.6754 11.3258 14.4921 12.1058 14.5754L26.1567 16.0171C26.5359 16.0588 26.98 16.2254 27.2509 16.4338L30.6417 19.0421C31.3025 19.5588 31.3783 20.4004 30.7933 20.9754L20.6317 30.9254C20.1983 31.3504 19.6458 31.5754 19.0825 31.5754ZM11.7484 15.8088C11.6184 15.8088 11.5534 15.8338 11.5425 15.8421C11.5425 15.8504 11.5209 15.9421 11.6075 16.1004L18.8875 30.1004C18.9742 30.2671 19.0717 30.3254 19.0825 30.3254C19.0933 30.3254 19.2017 30.2921 19.3425 30.1504L29.5042 20.2004C29.58 20.1338 29.5692 19.9838 29.4825 19.9254L26.0917 17.3171C26.07 17.3004 25.9725 17.2671 25.9292 17.2588L11.9 15.8171C11.8458 15.8088 11.7917 15.8088 11.7484 15.8088Z" fill="white"/>
<path d="M18.833 31.4671C18.8114 31.4671 18.7789 31.4671 18.7572 31.4671C18.313 31.4338 17.9772 31.1338 18.0205 30.7921L19.0713 21.9421L10.7189 16.2338C10.3831 16.0005 10.3506 15.6088 10.6539 15.3505C10.9572 15.0921 11.4664 15.0671 11.8022 15.3005L20.458 21.2171C20.653 21.3505 20.7505 21.5421 20.7289 21.7421L19.6455 30.9088C19.6022 31.2255 19.2447 31.4671 18.833 31.4671Z" fill="white"/>
<path d="M19.9158 22.3004C19.6233 22.3004 19.3417 22.1754 19.2009 21.9671C19.0275 21.7254 19.0925 21.4254 19.3416 21.2337L25.8416 16.2337C26.1558 15.9921 26.6759 15.9921 26.99 16.2337C27.3042 16.4754 27.3042 16.8754 26.99 17.1171L22.3859 20.6587L29.5467 19.5587C29.9908 19.4921 30.4134 19.7087 30.5 20.0504C30.5867 20.3921 30.305 20.7171 29.8608 20.7837L20.0675 22.2921C20.0242 22.3004 19.97 22.3004 19.9158 22.3004Z" fill="white"/>
</svg>
