<svg width="42" height="42" viewBox="0 0 42 42" fill="none" xmlns="http://www.w3.org/2000/svg">
<circle cx="21" cy="21" r="21" fill="#6F6AF8" fill-opacity="0.14"/>
<path d="M17.0537 29.9882C15.11 29.9882 13.5176 28.5417 13.5176 26.7608V25.0551C13.5176 24.7123 13.7952 24.428 14.1301 24.428C14.4649 24.428 14.7426 24.7123 14.7426 25.0551C14.7426 26.1003 15.7307 26.8862 17.0537 26.8862C18.3767 26.8862 19.3649 26.1003 19.3649 25.0551C19.3649 24.7123 19.6426 24.428 19.9774 24.428C20.3122 24.428 20.5899 24.7123 20.5899 25.0551V26.7608C20.5899 28.5417 19.0055 29.9882 17.0537 29.9882ZM14.9549 27.5802C15.3142 28.2658 16.1227 28.734 17.0537 28.734C17.9847 28.734 18.7932 28.2574 19.1525 27.5802C18.5727 27.9397 17.854 28.1487 17.0537 28.1487C16.2534 28.1487 15.5347 27.9397 14.9549 27.5802Z" fill="#292D32"/>
<path d="M17.0537 25.8494C15.7144 25.8494 14.5139 25.2223 13.9177 24.2274C13.6564 23.7926 13.5176 23.2826 13.5176 22.7642C13.5176 21.8862 13.8932 21.0668 14.5792 20.4565C15.9022 19.2692 18.1807 19.2693 19.5119 20.4482C20.1979 21.0669 20.5817 21.8862 20.5817 22.7642C20.5817 23.2826 20.4429 23.7926 20.1816 24.2274C19.5936 25.2223 18.393 25.8494 17.0537 25.8494ZM17.0537 20.791C16.4167 20.791 15.8287 21.0083 15.3877 21.4013C14.9712 21.7692 14.7426 22.2541 14.7426 22.7642C14.7426 23.0568 14.816 23.3244 14.963 23.5752C15.3387 24.2107 16.139 24.6036 17.0537 24.6036C17.9684 24.6036 18.7687 24.2107 19.1362 23.5836C19.2832 23.3411 19.3567 23.0652 19.3567 22.7725C19.3567 22.2625 19.1281 21.7775 18.7116 21.4013C18.2787 21.0083 17.6907 20.791 17.0537 20.791Z" fill="#292D32"/>
<path d="M17.0537 28.1487C15.0365 28.1487 13.5176 26.8193 13.5176 25.0635V22.7642C13.5176 20.9833 15.1019 19.5368 17.0537 19.5368C17.9765 19.5368 18.8586 19.8629 19.5201 20.4482C20.2061 21.0669 20.5899 21.8863 20.5899 22.7642V25.0635C20.5899 26.8193 19.0709 28.1487 17.0537 28.1487ZM17.0537 20.791C15.7797 20.791 14.7426 21.6772 14.7426 22.7642V25.0635C14.7426 26.1086 15.7307 26.8946 17.0537 26.8946C18.3767 26.8946 19.3649 26.1086 19.3649 25.0635V22.7642C19.3649 22.2542 19.1362 21.7692 18.7197 21.3929C18.2787 21.0083 17.6907 20.791 17.0537 20.791Z" fill="#292D32"/>
<path d="M26.7482 23.3411C25.515 23.3411 24.4697 22.4046 24.3717 21.2006C24.3064 20.5067 24.5514 19.8294 25.0414 19.3361C25.4497 18.9013 26.0295 18.6589 26.642 18.6589H28.3489C29.1574 18.684 29.778 19.3361 29.778 20.1388V21.8612C29.778 22.6639 29.1574 23.316 28.3734 23.3411H26.7482ZM28.3244 19.913H26.6502C26.3644 19.913 26.1031 20.0217 25.9152 20.2224C25.6784 20.4565 25.5641 20.7742 25.5967 21.0919C25.6376 21.6438 26.1602 22.0869 26.7482 22.0869H28.3489C28.455 22.0869 28.553 21.9866 28.553 21.8612V20.1388C28.553 20.0133 28.455 19.9214 28.3244 19.913Z" fill="#292D32"/>
<path d="M24.2669 28.734H22.2252C21.8904 28.734 21.6127 28.4498 21.6127 28.107C21.6127 27.7642 21.8904 27.4799 22.2252 27.4799H24.2669C26.3739 27.4799 27.7377 26.0836 27.7377 23.9264V23.3411H26.7495C25.5164 23.3411 24.4711 22.4047 24.3731 21.2007C24.3077 20.5067 24.5527 19.8295 25.0427 19.3362C25.4511 18.9014 26.0309 18.6589 26.6434 18.6589H27.7296V18.0736C27.7296 16.1171 26.6108 14.771 24.7978 14.5536C24.6018 14.5201 24.4302 14.5202 24.2587 14.5202H16.9087C16.7127 14.5202 16.5249 14.5369 16.337 14.562C14.5404 14.7961 13.4379 16.1339 13.4379 18.0736V19.7459C13.4379 20.0887 13.1602 20.3729 12.8254 20.3729C12.4906 20.3729 12.2129 20.0887 12.2129 19.7459V18.0736C12.2129 15.4984 13.7646 13.6339 16.1738 13.3245C16.3943 13.2911 16.6474 13.266 16.9087 13.266H24.2587C24.4547 13.266 24.7079 13.2744 24.9692 13.3162C27.3784 13.6004 28.9546 15.4733 28.9546 18.0736V19.286C28.9546 19.6288 28.6769 19.9131 28.3421 19.9131H26.6434C26.3575 19.9131 26.0962 20.0218 25.9084 20.2224C25.6716 20.4566 25.5572 20.7743 25.5899 21.092C25.6307 21.6438 26.1534 22.087 26.7414 22.087H28.3502C28.6851 22.087 28.9627 22.3712 28.9627 22.714V23.9264C28.9627 26.8026 27.0762 28.734 24.2669 28.734Z" fill="#292D32"/>
</svg>
