<svg width="32" height="32" viewBox="0 0 32 32" fill="none" xmlns="http://www.w3.org/2000/svg">
<path d="M11.5329 13.8242C10.3794 12.6771 9.66537 11.0886 9.66537 9.33334C9.66537 7.57808 10.3794 5.9896 11.5329 4.84252C10.8688 4.51645 10.1218 4.33334 9.33203 4.33334C6.57061 4.33334 4.33203 6.57192 4.33203 9.33334C4.33203 12.0948 6.57061 14.3333 9.33203 14.3333C10.1218 14.3333 10.8688 14.1502 11.5329 13.8242Z" fill="#1C1C1C"/>
<path d="M10.9987 9.33334C10.9987 6.57192 13.2373 4.33334 15.9987 4.33334C18.7601 4.33334 20.9987 6.57192 20.9987 9.33334C20.9987 12.0948 18.7601 14.3333 15.9987 14.3333C13.2373 14.3333 10.9987 12.0948 10.9987 9.33334Z" fill="#1C1C1C"/>
<path d="M20.4645 4.84252C21.618 5.9896 22.332 7.57808 22.332 9.33334C22.332 11.0886 21.618 12.6771 20.4645 13.8242C21.1286 14.1502 21.8756 14.3333 22.6654 14.3333C25.4268 14.3333 27.6654 12.0948 27.6654 9.33334C27.6654 6.57192 25.4268 4.33334 22.6654 4.33334C21.8756 4.33334 21.1286 4.51645 20.4645 4.84252Z" fill="#1C1C1C"/>
<path d="M6.9987 21.3333C6.9987 18.5719 9.23727 16.3333 11.9987 16.3333H19.9987C22.7601 16.3333 24.9987 18.5719 24.9987 21.3333C24.9987 24.0948 22.7601 26.3333 19.9987 26.3333H11.9987C9.23727 26.3333 6.9987 24.0948 6.9987 21.3333Z" fill="#1C1C1C"/>
<path d="M0.332031 20C0.332031 17.2386 2.57061 15 5.33203 15H11.9987C8.5009 15 5.66536 17.8355 5.66536 21.3333C5.66536 22.6998 6.09814 23.9653 6.8341 25H5.33203C2.57061 25 0.332031 22.7614 0.332031 20Z" fill="#1C1C1C"/>
<path d="M26.332 21.3333C26.332 22.6998 25.8993 23.9653 25.1633 25H26.6654C29.4268 25 31.6654 22.7614 31.6654 20C31.6654 17.2386 29.4268 15 26.6654 15H19.9987C23.4965 15 26.332 17.8355 26.332 21.3333Z" fill="#1C1C1C"/>
</svg>
